<?xml version="1.0" standalone="no"?>
<!DOCTYPE svg PUBLIC "-//W3C//DTD SVG 20010904//EN"
 "http://www.w3.org/TR/2001/REC-SVG-20010904/DTD/svg10.dtd">
<svg version="1.0" xmlns="http://www.w3.org/2000/svg"
 width="253.000000pt" height="253.000000pt" viewBox="0 0 253.000000 253.000000"
 preserveAspectRatio="xMidYMid meet">
<metadata>
Created by potrace 1.14, written by Peter Selinger 2001-2017
</metadata>
<g transform="translate(0.000000,253.000000) scale(0.100000,-0.100000)"
fill="#000000" stroke="none">
<path d="M978 2419 c-10 -10 -29 -19 -42 -19 -36 0 -40 -17 -10 -37 l27 -17
-24 -7 c-13 -4 -46 -8 -74 -9 l-50 -3 58 -10 c31 -6 57 -14 57 -19 0 -7 -24
-12 -57 -11 -25 1 -12 -16 17 -22 43 -9 37 -25 -10 -26 -22 -1 -44 -3 -50 -4
-5 -1 -34 -4 -62 -5 -51 -2 -52 -2 -18 -10 19 -4 79 -16 133 -25 53 -10 97
-21 97 -25 0 -5 -42 -7 -92 -4 -99 4 -84 -8 25 -21 31 -3 57 -11 57 -16 0 -7
-122 -15 -153 -10 -5 1 -6 -3 -2 -9 3 -5 11 -10 17 -10 6 0 43 -10 82 -21 79
-24 74 -30 -36 -42 -139 -16 -181 -33 -253 -106 -41 -43 -56 -52 -97 -57 -53
-7 -58 -13 -28 -32 31 -19 24 -32 -17 -33 -21 0 -56 -3 -78 -7 l-40 -8 68 -24
c37 -14 67 -28 67 -31 0 -3 -19 -11 -42 -16 l-43 -11 38 -1 c46 -1 50 -21 3
-21 -18 0 -55 -3 -81 -7 l-48 -6 94 -24 c52 -14 98 -29 103 -34 6 -5 -18 -10
-65 -10 l-74 -2 55 -9 c93 -16 101 -18 95 -28 -4 -6 10 -10 33 -10 32 0 48 -8
86 -41 25 -22 46 -45 46 -50 0 -5 -44 -10 -97 -10 l-98 -2 70 -9 c109 -15 102
-28 -16 -29 l-104 -1 92 -17 c50 -9 95 -19 99 -23 4 -5 -18 -9 -49 -9 -31 -1
-61 -3 -67 -4 -5 -1 -18 -3 -27 -5 -23 -2 -11 -6 60 -20 86 -17 71 -32 -25
-25 l-83 5 83 -26 c45 -15 82 -31 82 -36 0 -4 -33 -9 -72 -10 -60 -1 -64 -2
-23 -5 77 -6 80 -23 4 -24 -45 0 -58 -3 -44 -9 11 -5 34 -9 52 -9 17 -1 35 -5
38 -11 6 -9 -30 -13 -127 -14 -45 -1 -32 -11 32 -25 33 -8 63 -18 66 -22 3 -5
-30 -10 -73 -10 -81 -1 -81 -3 0 -14 70 -9 48 -23 -30 -19 -63 3 -65 3 -28 -7
22 -5 51 -13 65 -17 15 -4 -15 -9 -80 -12 l-105 -6 98 -2 c105 -2 137 -21 40
-23 -32 -1 -71 -5 -88 -9 l-30 -8 31 -1 c63 -2 123 -14 118 -23 -3 -5 -19 -7
-35 -4 -16 2 -32 0 -35 -5 -3 -5 -2 -9 3 -8 4 1 21 1 36 0 50 -2 20 -18 -60
-31 -78 -13 -113 -26 -70 -26 85 -1 127 -5 127 -14 0 -5 -26 -11 -57 -12 l-58
-1 45 -7 c25 -4 42 -8 38 -10 -18 -6 -32 -8 -100 -9 -86 -2 -76 -13 30 -31 39
-7 72 -16 72 -20 0 -4 -60 -11 -133 -16 -143 -8 -139 -10 63 -29 110 -10 109
-16 -7 -50 l-78 -24 59 0 c33 -1 56 -4 52 -8 -4 -5 -53 -15 -109 -24 l-102
-15 110 -13 c121 -14 149 -25 86 -36 -46 -8 -46 -20 -1 -30 43 -9 37 -25 -10
-26 -22 -1 -44 -3 -50 -4 -5 -1 -22 -3 -37 -5 -19 -1 -2 -9 49 -22 43 -11 76
-24 73 -28 -3 -4 -40 -11 -82 -16 -63 -6 -72 -9 -48 -15 17 -3 51 -7 78 -8 59
-1 62 -18 5 -28 l-43 -7 50 -12 c57 -13 52 -16 -60 -37 -71 -13 -75 -15 -37
-17 23 -1 47 -4 52 -5 6 -1 28 -3 50 -4 53 -1 51 -14 -7 -32 l-48 -15 47 -19
c27 -11 47 -24 45 -29 -2 -6 -32 -17 -68 -25 l-64 -15 65 -12 c36 -7 106 -13
156 -14 106 0 100 -7 103 115 1 44 3 143 5 220 2 80 11 172 20 215 35 159 106
336 184 461 26 41 58 119 90 217 l50 153 -31 -2 c-62 -4 -79 1 -112 36 -52 53
-68 92 -69 160 0 46 6 72 25 105 29 53 37 56 282 100 95 17 195 37 223 45 l51
15 17 67 c9 37 36 131 61 210 25 78 46 146 45 150 0 5 -89 9 -197 10 -184 1
-199 0 -215 -18z"/>
<path d="M1577 2396 c-63 -23 -104 -62 -139 -133 -29 -59 -33 -77 -33 -148 0
-91 18 -136 78 -194 30 -28 35 -39 33 -70 -3 -34 -99 -304 -117 -327 -5 -6
-28 -16 -51 -23 -24 -7 -71 -28 -105 -47 l-62 -34 39 108 c21 59 54 148 74
197 41 102 43 116 17 139 -35 32 -105 29 -291 -12 -166 -36 -175 -39 -191 -67
-10 -17 -21 -42 -24 -57 -6 -23 -2 -29 24 -42 36 -19 77 -19 191 -2 47 7 88
12 92 9 18 -10 -165 -492 -224 -588 -123 -203 -178 -381 -178 -580 0 -473 420
-580 798 -203 125 123 241 316 292 485 l22 72 61 19 c34 11 63 19 64 18 2 -2
-64 -161 -87 -211 -43 -93 -160 -382 -160 -396 0 -40 53 -53 235 -57 155 -4
172 -2 193 14 32 27 38 81 13 121 -20 33 -22 33 -97 33 -67 0 -75 2 -70 18 3
9 44 147 91 307 48 159 87 299 87 310 2 61 -17 85 -67 85 -19 0 -77 -14 -130
-31 -53 -17 -98 -29 -101 -27 -2 3 -7 31 -10 64 -17 182 -100 315 -224 360
-55 20 -56 22 -36 50 14 18 21 14 162 -81 82 -55 175 -121 208 -147 61 -49 90
-58 118 -35 9 6 67 100 129 207 62 107 116 197 121 198 35 15 -33 92 -81 92
-36 0 -45 -11 -146 -169 l-83 -132 -171 146 c-94 81 -171 152 -171 157 0 11
52 63 124 121 70 58 100 124 101 217 0 85 -19 132 -81 200 -66 72 -151 96
-237 66z m-23 -1079 c72 -44 131 -167 124 -258 l-3 -43 -175 -56 c-96 -31
-176 -56 -178 -55 -7 5 174 435 183 435 6 0 27 -11 49 -23z m-234 9 c0 -3 -43
-112 -94 -243 -52 -131 -99 -257 -104 -279 -13 -58 5 -108 40 -112 14 -2 125
26 245 62 121 36 225 66 231 66 24 0 -49 -151 -124 -256 -94 -133 -249 -239
-366 -251 -110 -11 -200 44 -250 152 -20 44 -23 65 -22 175 0 108 4 136 27
205 59 178 203 368 338 448 60 35 79 43 79 33z"/>
</g>
</svg>
